<svg xmlns="http://www.w3.org/2000/svg" width="59.996" height="100" viewBox="0 0 59.996 100">
  <g id="logo" transform="translate(-412.509 -136.833)">
    <g id="Group_2" data-name="Group 2" transform="translate(412.509 136.834)">
      <path id="Path_1" data-name="Path 1" d="M535.957,391.46a7.532,7.532,0,1,1-7.531-7.607A7.569,7.569,0,0,1,535.957,391.46Z" transform="translate(-506.445 -350.919)" fill="#fff"/>
      <path id="Path_2" data-name="Path 2" d="M665.1,850.159l-1.4.01-.019-3.56-3.623,3.55H658.6l-3.624-3.536v3.536h-1.408v-5.613l1.617.012,4.153,4.221,4.184-4.215h1.544l.031,5.6Z" transform="translate(-621.428 -750.191)" fill="#fff"/>
      <path id="Path_3" data-name="Path 3" d="M511.024,848.894l0,1.395s-4-.016-6.286-.016a2.8,2.8,0,0,1-.019-5.6l6.3.017v1.4s-3.935-.047-5.823-.042a1.5,1.5,0,0,0-1.615,1.368,1.47,1.47,0,0,0,1.62,1.473C505.242,848.9,511.024,848.894,511.024,848.894Z" transform="translate(-490.135 -750.304)" fill="#fff"/>
      <path id="Path_4" data-name="Path 4" d="M756.184,848.894l0,1.395s-4-.016-6.286-.016a2.8,2.8,0,0,1-2.665-2.9,2.71,2.71,0,0,1,2.646-2.7l6.3.017v1.4s-3.935-.047-5.823-.042a1.44,1.44,0,0,0-1.615,1.368,1.47,1.47,0,0,0,1.62,1.473C750.4,848.9,756.184,848.894,756.184,848.894Z" transform="translate(-702.609 -750.304)" fill="#fff"/>
      <path id="Path_5" data-name="Path 5" d="M429.7,844.677l-4.156,5.6h-2.659l-4.039-5.6h2.173l3.183,4.2,3.479-4.2Z" transform="translate(-418.001 -750.304)" fill="#fff"/>
      <g id="Group_1" data-name="Group 1" transform="translate(14.252 32.934)">
        <path id="Path_6" data-name="Path 6" d="M519.423,435.958s-.02-30.31-.02-44.432c0-1.372,1.489-7.673,7.73-7.673a7.607,7.607,0,0,1,0,15.214,8.8,8.8,0,0,1-6.756-3.556c.006.249.04,38.436.05,38.6C520.406,436.513,519.423,435.958,519.423,435.958Z" transform="translate(-519.403 -383.853)" fill="#fff"/>
        <path id="Path_7" data-name="Path 7" d="M643.927,688.979l0,0h0Z" transform="translate(-627.321 -648.298)" fill="#fff"/>
        <path id="Path_8" data-name="Path 8" d="M640.961,691.963h0l-.006.006Z" transform="translate(-624.749 -650.884)" fill="#fff"/>
      </g>
      <path id="Path_9" data-name="Path 9" d="M635.045,692.669l.794-.706Z" transform="translate(-605.375 -617.951)" fill="#fff"/>
      <path id="Path_10" data-name="Path 10" d="M631.685,697.7l.453-.48Z" transform="translate(-602.463 -622.507)" fill="#fff"/>
      <path id="Path_11" data-name="Path 11" d="M640.955,690.028l.3-.305Z" transform="translate(-610.498 -616.009)" fill="#fff"/>
      <path id="Path_12" data-name="Path 12" d="M643.184,689.083l.1-.1Z" transform="translate(-612.429 -615.365)" fill="#fff"/>
      <path id="Path_13" data-name="Path 13" d="M588.287,846.481a1.732,1.732,0,0,0-1.6-1.821l-7.074,0,.01,5.594,1.417.032.021-1.639,5.619-.024C587.506,848.627,588.287,847.678,588.287,846.481Zm-1.368.129c0,.468-.364.633-.725.725-1.677,0-5.143,0-5.143,0v-1.579h5.286A.849.849,0,0,1,586.919,846.61Z" transform="translate(-557.338 -750.289)" fill="#fff"/>
      <path id="Path_14" data-name="Path 14" d="M457.219,391.7h15.233s.645,8.772-2.564,16.59c-8.276,20.166-27.4,31.609-50.952,39.784.137.007,47.152-.133,47.152-.133v1.193l-53.578.038s20.21-9.1,24.3-12.274C447.5,428.989,458.339,417.225,457.219,391.7Z" transform="translate(-412.509 -357.716)" fill="#fff"/>
      <path id="Path_15" data-name="Path 15" d="M654.45,169.385c-1.353-12.731-6.5-21.563-15.336-26.505a26.816,26.816,0,0,0-13.33-3.31v-2.733a32.217,32.217,0,0,1,15,3.783,29.515,29.515,0,0,1,10.371,9.692c3.349,5.062,4.906,10.095,6.047,19.074Z" transform="translate(-597.349 -136.834)" fill="#fff"/>
      <path id="Path_16" data-name="Path 16" d="M637.873,284.064c-.9-5.08-5.785-12.506-12.089-12.55l.025-2.36c8.3.923,13.118,7.786,14.374,14.892Z" transform="translate(-597.349 -251.512)" fill="#fff"/>
      <path id="Path_17" data-name="Path 17" d="M641.916,256.917c-.966-7.08-4.161-11.939-9.061-14.766a15.941,15.941,0,0,0-7.071-2.167v-2.133a17.77,17.77,0,0,1,8.021,2.4c3.819,2.172,8.849,6.933,10.178,16.668Z" transform="translate(-597.349 -224.384)" fill="#fff"/>
      <path id="Path_18" data-name="Path 18" d="M646.117,229.095c-1.357-8.812-5.123-14.9-11.246-18.419a20.037,20.037,0,0,0-8.9-2.685l0-2.261a21.878,21.878,0,0,1,9.9,2.924,22.73,22.73,0,0,1,7.522,6.938,32.636,32.636,0,0,1,5.025,13.5Z" transform="translate(-597.513 -196.544)" fill="#fff"/>
      <path id="Path_19" data-name="Path 19" d="M650.238,200.6c-1.274-10.371-5.762-17.671-13.371-21.971a26.2,26.2,0,0,0-11.083-3.378v-2.4a28.261,28.261,0,0,1,12.145,3.634,26.991,26.991,0,0,1,9.1,8.271A35.43,35.43,0,0,1,652.68,200.6Z" transform="translate(-597.349 -168.05)" fill="#fff"/>
      <path id="Path_20" data-name="Path 20" d="M519.784,442.446v-.6c10.623-5.475,29.931-19.8,26.474-50.151l2.324.021C551.782,424.314,529.218,437.967,519.784,442.446Z" transform="translate(-505.482 -357.716)" fill="#fff"/>
    </g>
  </g>
</svg>
